# xmcd CD database file
#
# Track frame offsets:
#	150
#	14185
#	27540
#	38675
#	51005
#	62652
#	75200
#	86732
#	99867
#	111800
#	124107
#	135630
#	152217
#	164455
#	177245
#	190697
#	207125
#	218920
#
# Disc length: 3088 seconds
#
# Revision: 0
# Processed by: cddbd v1.4PL0 Copyright (c) Steve Scherf et al.
# Submitted via: CDex 1.40Release
#
DISCID=ee0c0e12
DTITLE=Snooky Pryor - Real Fine Boogie
DYEAR=1900
DGENRE=Blues
TTITLE0=Fine Boogie
TTITLE1=Hold Me In Your Arms
TTITLE2=Boogy Fool
TTITLE3=Raising Sand 
TTITLE4=I'm Getting Tired
TTITLE5=Going Back On The Road
TTITLE6=Real Fine Boogie
TTITLE7=Cryin' Shame
TTITLE8=Eighty Nine Ten
TTITLE9=Stop The Train, Conductor (Take 1)
TTITLE10=Walking Boogie
TTITLE11=Stop The Train, Conductor (Take 2 and 3)
TTITLE12=Rough Treatment
TTITLE13=Why Should I Worry
TTITLE14=Big Guns
TTITLE15=Uncle Sam Don't Take My Man
TTITLE16=Let's Get This Straight (Can't We Get This Straight)
TTITLE17=Boogie Twist
EXTD=ID3G: 0
EXTT0=
EXTT1=
EXTT2=
EXTT3=
EXTT4=
EXTT5=
EXTT6=
EXTT7=
EXTT8=
EXTT9=
EXTT10=
EXTT11=
EXTT12=
EXTT13=
EXTT14=
EXTT15=
EXTT16=
EXTT17=
PLAYORDER=
